<?xml version="1.0" encoding="utf-8"?>
<!-- Generator: Adobe Illustrator 22.0.0, SVG Export Plug-In . SVG Version: 6.00 Build 0)  -->
<svg version="1.1" id="图层_1" xmlns="http://www.w3.org/2000/svg" xmlns:xlink="http://www.w3.org/1999/xlink" x="0px" y="0px"
	 viewBox="0 0 50 50" style="enable-background:new 0 0 50 50;" xml:space="preserve">
<style type="text/css">
	.st0{fill:#985AFF;}
</style>
<path class="st0" d="M49.5,10.8c-0.4-0.4-0.8-0.5-1.3-0.5h-6.7c0.5-1,0.8-2.1,0.8-3.3c0-3.9-3.1-7-7-7c-3.8,0-6.9,3-8.5,4.7
	c-0.7,0.8-1.3,1.6-1.8,2.4c-0.5-0.8-1.1-1.7-1.8-2.4C21.7,3,18.5,0,14.7,0c-3.9,0-7,3.1-7,7c0,1.2,0.3,2.3,0.8,3.3H1.9
	c-1,0-1.9,0.8-1.9,1.9v7.7c0,1,0.8,1.9,1.9,1.9h0.7v23.9C2.6,48,4.6,50,7,50h36c2.4,0,4.4-2,4.4-4.4V21.7h0.7c1,0,1.9-0.8,1.9-1.9
	v-7.7C50,11.6,49.8,11.2,49.5,10.8L49.5,10.8z M22.5,10.3h-7.8c-1.8,0-3.3-1.5-3.3-3.3c0-1.8,1.5-3.3,3.3-3.3c1.7,0,3.8,1.3,5.7,3.4
	C21.2,8.1,22,9.3,22.5,10.3L22.5,10.3z M27.4,12.6v35.4h-4.7V12.6H27.4L27.4,12.6z M38.6,7c0,1.8-1.5,3.3-3.3,3.3h-7.8
	c0.5-1,1.3-2.1,2.1-3.1c1.9-2.2,4-3.4,5.7-3.4C37.1,3.7,38.6,5.2,38.6,7L38.6,7z"/>
</svg>
