<svg id="图层_1" data-name="图层 1" xmlns="http://www.w3.org/2000/svg" viewBox="0 0 68 50"><defs><style>.cls-1{fill:#aaa;opacity:0.9;}.cls-2{fill:#4e4e4e;}</style></defs><title>arrow-r</title><path class="cls-1" d="M43.21.18h-20V.27a25,25,0,0,0,0,49.82v.09h20a25,25,0,0,0,0-50Z" transform="translate(-0.21 -0.18)"/><path class="cls-2" d="M33.78,39.51,47.24,25.83a1.27,1.27,0,0,0,0-1.77L33.82,10.43a.86.86,0,0,0-1.35.18,1.28,1.28,0,0,0,.14,1.6L45.11,25,32.57,37.73a1.29,1.29,0,0,0-.15,1.6.92.92,0,0,0,.75.43.89.89,0,0,0,.61-.25Zm0,0" transform="translate(-0.21 -0.18)"/><circle class="cls-2" cx="21" cy="25" r="2"/><circle class="cls-2" cx="35" cy="25" r="2"/><circle class="cls-2" cx="28" cy="25" r="2"/></svg>