<?xml version="1.0" encoding="utf-8"?>
<!-- Generator: Adobe Illustrator 21.0.0, SVG Export Plug-In . SVG Version: 6.00 Build 0)  -->
<svg version="1.1" id="图层_1" xmlns="http://www.w3.org/2000/svg" xmlns:xlink="http://www.w3.org/1999/xlink" x="0px" y="0px"
	 viewBox="0 0 882.5 250.4" style="enable-background:new 0 0 882.5 250.4;" xml:space="preserve">
<style type="text/css">
	.st0{fill:#3A7901;}
	.st1{fill:#9ED723;}
	.st2{fill:#3F931E;}
	.st3{fill:#D96D25;}
	.st4{fill:#F6AD00;}
	.st5{fill:#FDBF3C;}
	.st6{fill:#CB2D28;}
	.st7{fill:#DF5224;}
	.st8{fill:#B31710;}
	.st9{fill:#F19304;}
	.st10{fill:#CC0A6A;}
	.st11{fill:url(#SVGID_1_);}
	.st12{fill:#F19204;}
	.st13{fill:#DE5324;}
	.st14{fill:#474D9F;}
	.st15{fill:#1D6EC0;}
	.st16{fill:#2C8CEC;}
	.st17{fill:#3B51C5;}
	.st18{fill:#4F64D1;}
	.st19{fill:#EF2629;}
	.st20{fill:#3F408C;}
	.st21{fill:#FFFFFF;}
	.st22{fill:#B53207;}
</style>
<title>guoziyx-logo-</title>
<path d="M381,40.9v93.9h-55.9v9.9H386V167h-60.9v51.5h-27.8c0-0.7,0-1.4,0-2.1c0-11.9,0-23.7,0-35.6c0-3.5-0.5-7-3-10.1
	c-1.7-2.1-4.2-3-7.2-3.5c-1.2-0.1-2.5-0.2-3.7-0.1h-49v-22.3H297c1.4-4.5-1.8-9.4-8.7-9.8c-1.5-0.1-2.9-0.1-4.4-0.1h-44.4
	c0-0.8-0.1-1.3-0.1-1.9c0-18.8,0-37.6,0-56.4c0-5.4,0.6-10.7,3.2-15.9c2.4-5.4,7.4-9.2,13.3-10.2c2.4-0.5,4.8-0.8,7.2-0.9
	c31.4-0.1,62.8-0.1,94.2,0c5.4,0,9.7-1.7,14-3.7C374.5,44.4,377.6,42.7,381,40.9z M297.3,113.4c0-1.6,0-3.1,0-4.6
	c-0.2-4.7-3.7-7.3-10-7.3c-6.8,0-13.7,0-20.6,0h-2.1v11.8L297.3,113.4z M325.2,101.6v11.8h30.5c0-2,0.1-3.9,0-5.8
	c-0.3-3.6-3.7-5.8-8.2-5.9C340.1,101.5,332.8,101.7,325.2,101.6L325.2,101.6z M264.6,81.1h32.7c0-1,0-1.9,0-2.7
	c0.3-4.5-3.3-7.4-9.5-7.4c-5.8,0-11.7-0.1-17.5-0.1h-5.7L264.6,81.1z M355.9,81.2c0-1.4,0-2.5,0-3.6c-0.2-3.9-3.5-6.4-8.6-6.5
	c-4.5-0.1-9-0.1-13.6-0.1c-2.8,0-5.6,0-8.6,0v10.3L355.9,81.2z"/>
<path d="M397.4,148.1v-26h66.1v-1.9c0-5.2,0.1-10.4-0.1-15.7c-0.1-1.8,1-2.9,2.5-4.1c5.6-4.1,11.1-8.3,16.8-12.4
	c5.1-3.7,10.2-7.3,15.3-10.9l-0.6-0.6h-95.5c-0.1-0.7-0.2-1.2-0.2-1.7c0-6.7,0-13.4,0-20.1c0-1.5,0.7-1.8,2.6-1.8
	c43.4,0,86.9,0,130.4,0c3,0,7.9,2.7,9.5,5.9c2.1,4.1,1.2,8.3,0.8,12.5c-0.4,3.9-3.7,6.1-7,8.6c-5,3.7-10,7.4-15,11.1
	c-5.7,4.1-11.4,8.2-17,12.4c-4.5,3.3-8.9,6.6-13.3,9.9c-0.3,0.3-0.6,0.7-0.6,1.2c0,2.5,0,4.9,0,7.7h2.3c14,0,28-0.1,42.1,0
	c3.7,0.1,7.3-1.2,10.2-3.6c1.1-0.8,1.9-1.7,3.1-2.7c0.1,0.3,0.2,0.5,0.2,0.8c0,6.4,0.1,12.6-0.1,19c0,3.1-0.9,6-2.7,8.5
	c-2.1,2.8-5.4,4.1-9.6,4.1h-45.5v1.9c0,15.9,0,31.9,0,47.8c0,4.6-0.4,9.1-3.4,13.3c-2.3,3.5-6.2,5.6-10.4,5.6
	c-13.7,0.3-27.4,0.4-41.1,0.5c-0.6,0-1.8-0.7-1.8-1.1c-0.1-7.1-0.1-14.1-0.1-21.4c1,0,1.7-0.1,2.5-0.1H458c4.4,0,5.4-0.7,5.4-4
	c0-8.4,0.1-16.8,0-25.2c0-3.5-0.5-6.9-1.3-10.3c-1.1-4.2-6.4-7-12-7c-16.7,0.1-33.3,0-49.9,0L397.4,148.1z"/>
<path d="M801.5,207.1c0-1.1,0-1.6,0-2.2c0-8.8,0.1-17.6-0.1-26.4c-0.1-2.3,0.9-3.9,2.9-5.5c5.7-4.8,11.4-9.5,17.1-14.4
	c1.7-1.4,3.4-2.8,5-4.2c0.5-0.5,0.8-1.2,0.7-1.9c-3.6-14.6-7.3-29.1-11.1-43.6c-0.5-2-1.1-4-1.5-6c-0.2-1.1-0.9-1.3-2.1-1.3
	c-6.2,0-12.4,0-18.8,0V77.6h16.8l-5-28h9.4c2.4,0,4.8-0.1,7.2,0c4.2,0.3,7.2-0.7,9.2-3.7c0.4,1.8,0.8,3.6,1.1,5.3
	c1.6,8.4,3.2,16.7,4.9,25.1c0.2,0.6,0.7,1.1,1.3,1.2c3.7,0.1,7.4,0.1,11.4,0.1l-5.6-25.7c5.5,0,10.6-0.1,15.8,0
	c3.5,0.1,5.6-1,6.8-3.3c0.1-0.2,0.2-0.3,0.4-0.4c0.1-0.1,0.3-0.1,0.4-0.1c0.9,4.1,1.8,8.2,2.7,12.2c1.7,7.6,3.7,15.2,4.9,22.9
	c0.9,6.1-0.8,12-7.1,16.5c-2,1.3-4.3,2-6.7,1.9c-5.9,0-11.8,0-17.7,0h-2.7l8.8,35.2l25-22.3c0.1,0.5,0.1,1,0.2,1.5
	c0,11-0.1,22,0.1,33c0,1.7-1.5,2.4-2.6,3.4c-4.2,3.8-8.7,7.5-12.9,11.3c-0.5,0.4-0.7,1.1-0.6,1.7c3.8,13.7,7.6,27.5,11.5,41.2
	c0.1,0.3,0.2,0.5,0.3,1l6-1.8l-3.1,12.8h-27l-11.4-35.3L801.5,207.1z"/>
<path d="M725.2,88.9h8.6c4.7,0,9.5,0.1,14.2,0c1.8,0,2.5,0.4,3,1.7c2.2,6,4.6,12,6.9,18c0.2,0.5,0.5,0.9,0.7,1.3l10-34.8h-2.8
	c-12.8,0-25.7,0-38.5,0c-2.1,0-2.8-0.4-2.8-2c0.1-6.8,0-13.5,0-20.3V51h2.8c16.4,0,32.7,0.1,49.1,0c7.1-0.1,12.9,3.3,15.2,7.8
	c3,5.6,3.6,12.1,1.7,18.2c-7.2,24.7-14.1,49.5-21.1,74.2c-0.2,0.7-0.2,1.5,0.1,2.2c7.8,18.4,15.5,36.7,23.3,55.1
	c0,0.1,0.2,0.1,0.5,0.3l3.1-3v11.9h-9.5c-5,0-9.9,0-14.9,0c-1.3,0-1.9-0.3-2.3-1.2c-3.5-8.5-7.2-16.9-10.8-25.3
	c-0.3-0.8-0.7-1.6-1.3-2.9c-1.5,4.1-2.9,7.7-4.2,11.3c-1.6,4.3-3.3,8.6-4.9,12.9c-1.2,3-5.2,5.1-9.8,4.7c-4.9-0.4-9.9-0.1-14.8-0.1
	c-3.3,0-3.3,0-2.5-2.5c6.8-19.4,13.4-38.8,20.3-58.1c1.3-3.6-0.3-6.6-1.3-9.8c-5.1-16.7-10.4-33.4-15.6-50.1
	C726.8,94.2,726.1,91.6,725.2,88.9z"/>
<path d="M626.9,218.6c3.3-2.9,3.4-6.1,3.4-9.3c0-26.3,0-52.5,0-78.8v-2.1h-7l-1.9,89.2h-24.6c0-0.1,0-0.4,0.1-0.5
	c2.5-2.2,2.5-4.9,2.6-7.6c0.7-36.4,1.3-72.8,2-109.2c0.1-5.1,0-10.2,0-15.5h-7.7V61h17.4V49.6h2.5c5.4,0,10.8-0.1,16.2,0
	c2.8,0.1,5.6-0.9,7.7-2.9v14.1c1,0,1.7,0.1,2.5,0.1c3.6,0,7.3,0,10.9,0c1.4,0,1.9,0.3,1.9,1.4c0,7,0,14,0,20.9c0,1.2-0.6,1.5-2,1.5
	c-8.1,0-16.2,0-24.3,0h-2.6v19.8c2.9,0,5.7,0.1,8.5,0c9.6-0.4,14.7,3.7,17.5,9.6c2.3,4.9,2.8,10,2.8,15.1c0.1,25,0.1,50,0,75
	c-0.1,2.9-0.6,5.7-1.6,8.4c-1.2,3.8-5.3,5.5-10,5.9C636.8,218.8,632.1,218.6,626.9,218.6z"/>
<path d="M673.7,148.1c0.1-2.4,0.1-4.7-0.1-7.1c-0.5-3.8,1.4-7.1,3.1-10.4c1.7-3.4,3.3-6.9,5.1-10.5h-23.7V96.9h2.6
	c11.2,0,22.5,0.2,33.7-0.1c9.5-0.2,14.5,4.2,16,10.3c1.1,4.5,1,9.2-0.2,13.6c-0.8,2.9-2.9,5.7-4.5,8.5c-2,3.6-4.5,7-6,10.7
	c-1.1,2.5-0.7,5.3-1.1,8.2h14v23.2h-13.5c0,0.8-0.1,1.4-0.1,2.1c0,9.1,0,18.1,0,27.2c0,4.1-0.3,8.2-2.9,12c-2,3.2-5.4,5.2-9.2,5.5
	c-2.2,0.2-4.4,0.5-6.6,0.6c-6.9,0.1-13.9,0-20.8,0h-2.6c0.6-0.5,0.9-0.8,1.2-1c1.9-1.4,3.2-3,3.1-5.2c-0.1-5.1,0-10.2,0-15.6h7.4
	c3.8,0,5.3-1.3,5.2-3.9c-0.2-7.1-0.1-14.3-0.1-21.6h-16.9v-23.2H673.7z"/>
<path d="M561.3,94.1c3.6,0.8,7.1,2.1,10.3,3.9c12.7,7.1,17.4,17.5,20.1,28.6c3.2,13,3.2,26.3,1.4,39.5c-2.1,15.6-4.9,31.2-7.4,46.7
	c-0.3,1.9-0.6,3.8-1,5.6h-24.5c0.6-3.6,1.3-7.2,1.9-10.7c2.3-12.8,4.5-25.6,6.9-38.3c1.5-7.3,2.2-14.7,2.1-22.1
	c-0.2-5.9-0.7-11.9-4.2-17.3c-1.3-1.9-3.4-3.6-5.1-5.3c-0.3-0.4-0.8-0.8-0.8-1.2c0-9.7,0-19.3,0-29
	C561.1,94.4,561.1,94.4,561.3,94.1z"/>
<path d="M656.8,50.5H681v11.8h12.8c2.7,0,5.4-0.1,8.1,0c3.2,0.2,5.8-0.5,7.7-2.5c0.4-0.3,0.7-0.6,1.2-0.8v26.5h-2.4
	c-11.2,0-22.3-0.2-33.5,0c-13,0.2-18.2-5.1-19.1-13.3c-0.6-5.6,0.3-11.3,0.5-17C656.5,53.8,656.6,52.2,656.8,50.5z"/>
<path d="M377.2,202.4l7.9-3.4c-0.7,2.8-1.3,5.3-2,7.9c-0.7,2.8-1.5,5.6-2.1,8.4c-0.3,1.2-0.8,1.9-2.7,1.8c-7.4-0.1-14.7,0-22.1,0
	c-1.5,0-2.3-0.4-2.6-1.5c-3.5-13.3-7.1-26.5-10.6-39.8c0-0.3,0-0.6,0-0.9h4.3c4.5,0,9.1,0.1,13.6,0c6.6-0.2,9.7,1.6,11.3,7.1
	c1.8,6.1,3,12.3,4.4,18.4C376.8,201.1,377,201.6,377.2,202.4z"/>
<path d="M267.1,216.2h-27c0.4-2.4,0.9-4.8,1.3-7.1c2.1-10.9,4.3-21.8,6.5-32.7c0.2-0.9,0.3-1.4,1.8-1.4c8.2,0,16.3,0,24.5,0
	c0.4,0,0.7,0.1,1.1,0.2L267.1,216.2z"/>
<polygon class="st0" points="571,50.8 580.8,47.5 576.5,50.3 "/>
<polygon class="st1" points="580.8,47.5 574.2,48.1 571,50.8 "/>
<polygon class="st2" points="570.5,54 576.5,50.2 571,50.8 "/>
<polygon class="st1" points="580.8,47.5 570.5,54 573.8,54 "/>
<polygon class="st0" points="580.8,47.5 578.4,52 573.8,54 "/>
<polygon class="st1" points="570.9,51.8 569.2,52.3 570.5,54 "/>
<polygon class="st2" points="570.5,54 569.2,52.3 568.7,54 "/>
<polygon class="st3" points="578.4,61.2 586.3,70.1 572.3,66.7 "/>
<polygon class="st4" points="578.4,61.2 584.2,59.5 586.3,70.1 "/>
<polygon class="st5" points="584.2,59.5 572.3,53.9 578.4,61.2 "/>
<polygon class="st6" points="572.3,66.7 572.3,75.1 586.3,70.1 "/>
<polygon class="st7" points="572.3,75.1 578.2,80.3 586.3,70.1 "/>
<polygon class="st8" points="572.3,75.1 572.3,80.3 578.2,80.3 "/>
<polygon class="st9" points="578.4,61.2 572.3,53.9 572.3,66.7 "/>
<polygon class="st10" points="566.1,61.2 558.2,70.1 572.3,66.7 "/>
<polygon class="st8" points="566.1,61.2 560.4,59.5 558.2,70.1 "/>
<polygon class="st6" points="560.4,59.5 572.3,53.9 566.1,61.2 "/>
<polygon class="st8" points="572.3,66.7 572.3,75.1 558.2,70.1 "/>
<polygon class="st6" points="572.3,75.1 566.4,80.3 558.2,70.1 "/>
<polygon class="st3" points="572.3,75.1 572.3,80.3 566.4,80.3 "/>
<polygon class="st7" points="566.1,61.2 572.3,53.9 572.3,66.7 "/>
<linearGradient id="SVGID_1_" gradientUnits="userSpaceOnUse" x1="112.505" y1="-0.52" x2="112.505" y2="220.88" gradientTransform="matrix(1 0 0 -1 0 249.89)">
	<stop  offset="0" style="stop-color:#3C4996"/>
	<stop  offset="5.000000e-02" style="stop-color:#454B98"/>
	<stop  offset="0.15" style="stop-color:#5F4F9C"/>
	<stop  offset="0.26" style="stop-color:#8856A4"/>
	<stop  offset="0.4" style="stop-color:#C160AE"/>
	<stop  offset="0.5" style="stop-color:#F269B7"/>
	<stop  offset="0.99" style="stop-color:#FFAA07"/>
</linearGradient>
<polygon class="st11" points="159.8,39.3 196.8,67.8 219.2,109 225,164 195.3,214.1 164.9,237.8 113.6,250.4 61.3,238.7 31.5,213.3 
	0,164.4 5.3,109.6 27,70.1 66.9,39.2 114,29 "/>
<polygon class="st9" points="113.5,34.6 113.3,123.1 151.4,83.1 "/>
<polygon class="st3" points="151.4,83.1 204.2,151 113.4,123.3 "/>
<polygon class="st5" points="151.4,83.1 185.7,71 203.9,150.8 "/>
<polygon class="st4" points="151.4,83.1 185.8,70.9 113.5,34.6 "/>
<polygon class="st12" points="114.1,34.7 160,39.6 185.7,71 "/>
<polygon class="st13" points="186,70.9 219.4,109.3 203.9,150.8 "/>
<polygon class="st14" points="113.5,123 203.9,150.9 113.3,185.5 "/>
<polygon class="st15" points="203.7,151 113.3,185.5 146.3,223.8 "/>
<polygon class="st16" points="203.9,150.8 195.4,213.8 146.3,223.8 "/>
<polygon class="st17" points="113.6,185.3 146.3,223.8 113.6,223.8 "/>
<polygon class="st18" points="146.6,223.8 113.5,250.3 80.3,223.8 "/>
<polygon class="st7" points="113.3,34.2 113.6,122.6 75.4,82.7 "/>
<polygon class="st3" points="75.4,82.7 22.7,150.5 113.4,122.9 "/>
<polygon class="st8" points="75.4,82.7 41.2,70.5 23,150.4 "/>
<polygon class="st6" points="75.4,82.7 41,70.5 113.3,34.2 "/>
<polygon class="st12" points="112.7,34.3 66.9,39.2 41.2,70.5 "/>
<polygon class="st19" points="40.9,70.5 5.7,109.7 23,150.4 "/>
<polygon class="st20" points="113.8,123 23,150.4 113.5,185.1 "/>
<polygon class="st15" points="23.2,150.6 113.5,185.1 80.5,223.4 "/>
<polygon class="st16" points="23,150.4 31.5,213.3 80.5,223.4 "/>
<polygon class="st17" points="113.7,184.8 80.1,223.8 113.7,223.8 "/>
<path class="st21" d="M114.4,100.4c7.7,0,15,0,18.1-2.8s7.3-10.1,10.5-13.6c3.1-2.2,4.8-5.3,14-2s19.1,5.8,21.5,9.6
	s15.1,36.7,18.4,51.2s5.3,34.9-2.4,41.2s-10.8,6.1-16.9,2c-5.7-5.3-14.7-15.4-20.5-19.7c-5.1-3.9-5.6-5.8-13.5-5.7
	c-6.8,0.1-52.2-0.9-58.3,0.2s-9.9,1.3-14.5,6.4c0,0-16.5,19.1-21.7,20.4c0,0-9.2,4.2-15.6-5.1c0,0-5-5.7-4.8-17.5
	c0.9-12.6,3.2-25,6.8-37.1c0,0,8.8-25.4,11.2-30.5s1.8-6.1,15.1-11c12.9-5,16.2-7.5,20.8-4.6c4.6,3.9,14.2,17.8,17.6,18
	S114.4,100.4,114.4,100.4z"/>
<circle class="st22" cx="154.5" cy="111.3" r="6.4"/>
<circle class="st22" cx="154.5" cy="136.9" r="6.4"/>
<circle class="st22" cx="65.9" cy="128.3" r="17.8"/>
<circle class="st22" cx="103.6" cy="143.4" r="3.2"/>
<path class="st22" d="M101.3,149.1c0,1.8-1.4,3.2-3.2,3.2s-3.2-1.4-3.2-3.2c0-1.8,1.4-3.2,3.2-3.2c0,0,0,0,0,0
	C99.8,145.9,101.3,147.3,101.3,149.1C101.3,149.1,101.3,149.1,101.3,149.1z"/>
<polyline class="st22" points="106.1,145.2 100.2,151.5 95.8,146.9 101.8,140.6 "/>
<circle class="st22" cx="130.3" cy="143.2" r="3.2"/>
<path class="st22" d="M128,148.9c0,1.8-1.4,3.2-3.2,3.2s-3.2-1.4-3.2-3.2c0-1.8,1.4-3.2,3.2-3.2c0,0,0,0,0,0
	C126.6,145.8,128,147.2,128,148.9C128,148.9,128,148.9,128,148.9z"/>
<polyline class="st22" points="132.9,145.1 126.9,151.3 122.6,146.7 128.5,140.5 "/>
<circle class="st21" cx="66.4" cy="120.9" r="3.9"/>
<circle class="st21" cx="66.4" cy="137.6" r="3.9"/>
<polyline class="st21" points="70.2,120.9 70.2,137.6 62.5,137.6 62.5,120.9 "/>
<circle class="st21" cx="58.1" cy="129" r="3.9"/>
<circle class="st21" cx="74.8" cy="129" r="3.9"/>
<polyline class="st21" points="58.1,125.1 74.8,125.1 74.8,132.9 58.1,132.9 "/>
<circle class="st22" cx="141.7" cy="124.1" r="6.4"/>
<circle class="st22" cx="167.3" cy="124.1" r="6.4"/>
<polygon class="st0" points="116.2,17.1 166.3,0 144.4,14.5 "/>
<polygon class="st1" points="166.3,0 132.4,3.5 116.2,17.1 "/>
<polygon class="st2" points="113.7,34 144.2,14.3 116.2,17.1 "/>
<polygon class="st1" points="166.3,0 113.7,34 130.5,34 "/>
<polygon class="st0" points="166.3,0.1 154.1,23.5 130.5,34 "/>
<polygon class="st1" points="115.4,22.3 106.8,24.9 113.7,34 "/>
<polygon class="st2" points="113.7,34 106.9,25 104.1,34 "/>
</svg>
