<?xml version="1.0" encoding="utf-8"?>
<!-- Generator: Adobe Illustrator 22.0.0, SVG Export Plug-In . SVG Version: 6.00 Build 0)  -->
<svg version="1.1" id="图层_1" xmlns="http://www.w3.org/2000/svg" xmlns:xlink="http://www.w3.org/1999/xlink" x="0px" y="0px"
	 viewBox="0 0 51 51" style="enable-background:new 0 0 51 51;" xml:space="preserve">
<style type="text/css">
	.st0{opacity:0.9;}
	.st1{fill:#FFFFFF;}
</style>
<title>ad-arrow-r</title>
<g class="st0">
	<rect width="51" height="51"/>
</g>
<path class="st1" d="M33.2,25.5L33.2,25.5c0,0.4-0.2,0.8-0.5,1.1L20.3,38.4c-0.3,0.3-0.6,0.4-1,0.4c-0.8,0-1.5-0.7-1.5-1.5
	c0-0.4,0.2-0.8,0.5-1.1l11.2-10.7L18.3,14.8c-0.6-0.6-0.6-1.5,0-2.1c0.6-0.6,1.5-0.6,2.1-0.1l12.4,11.8C33,24.7,33.2,25.1,33.2,25.5
	L33.2,25.5z"/>
</svg>
