<?xml version="1.0" encoding="utf-8"?>
<!-- Generator: Adobe Illustrator 22.0.0, SVG Export Plug-In . SVG Version: 6.00 Build 0)  -->
<svg version="1.1" id="图层_1" xmlns="http://www.w3.org/2000/svg" xmlns:xlink="http://www.w3.org/1999/xlink" x="0px" y="0px"
	 viewBox="0 0 50 50" style="enable-background:new 0 0 50 50;" xml:space="preserve">
<style type="text/css">
	.st0{fill:#888888;}
</style>
<path class="st0" d="M50,9.8c0,1.4-0.5,2.8-1.4,4.2s-2,2.5-3.4,3.4c-7,4.8-11.4,7.8-13.1,9.1c-0.2,0.2-0.6,0.5-1.2,0.8
	c-0.6,0.5-1.1,0.8-1.6,1.1l-1.4,0.9c-0.5,0.3-1.1,0.6-1.6,0.8s-0.9,0.3-1.4,0.3s-0.9-0.2-1.4-0.3c-0.6-0.2-1.1-0.5-1.6-0.8l-1.4-0.9
	c-0.5-0.3-0.9-0.6-1.6-1.1c-0.6-0.5-0.9-0.8-1.3-0.8c-2.5-1.7-4.8-3.4-7.3-5.2c-3.1-2.2-5.2-3.6-5.8-3.9c-0.9-0.8-2-1.9-3-3.3
	C0.5,12.8,0,11.6,0,10.5c0-1.6,0.3-2.7,1.1-3.6C1.9,5.9,3,5.5,4.4,5.5h41.1c1.3,0,2.2,0.5,3.1,1.3S50,8.6,50,9.8z M50,18v22.2
	c0,1.3-0.5,2.3-1.3,3.1c-0.9,0.9-1.9,1.3-3.1,1.3H4.5c-1.2,0-2.3-0.5-3.1-1.3c-0.9-0.9-1.3-1.9-1.3-3.1V18c0.8,0.9,1.7,1.7,2.8,2.5
	c6.7,4.5,11.4,7.8,13.9,9.7c0.8,0.6,1.7,1.3,2.7,1.9c0.6,0.5,1.6,0.9,2.7,1.4s2.2,0.6,3.1,0.6s2-0.2,3.1-0.6s2-0.9,2.7-1.4
	c0.9-0.6,1.7-1.2,2.7-1.9c3.1-2.3,7.8-5.5,13.9-9.7C48.3,19.7,49.2,18.9,50,18z"/>
</svg>
